<mxfile host="app.diagrams.net" modified="2020-08-22T04:50:35.170Z" agent="5.0 (Macintosh; Intel Mac OS X 10_15_5) AppleWebKit/537.36 (KHTML, like Gecko) Chrome/84.0.4147.125 Safari/537.36" etag="1IkynXq-GAEKCqz2tPo2" version="13.6.4" type="github">
  <diagram id="ZBMq4jeeCceyxKJ0wnBh" name="Page-1">
    <mxGraphModel dx="946" dy="1746" grid="1" gridSize="10" guides="1" tooltips="1" connect="1" arrows="1" fold="1" page="1" pageScale="1" pageWidth="850" pageHeight="1100" math="0" shadow="0">
      <root>
        <mxCell id="0" />
        <mxCell id="1" parent="0" />
        <mxCell id="fBbBC2fZr12eWxPC5pkF-1" value="&lt;b&gt;Person&lt;br&gt;&lt;/b&gt;PID&lt;br&gt;Name&lt;br&gt;Age&lt;br&gt;Sex&lt;br&gt;Contact" style="ellipse;whiteSpace=wrap;html=1;" vertex="1" parent="1">
          <mxGeometry x="490" y="-470" width="170" height="200" as="geometry" />
        </mxCell>
        <mxCell id="fBbBC2fZr12eWxPC5pkF-2" value="&lt;b&gt;MembershipType&lt;/b&gt;&lt;br&gt;MembershipTypeID&lt;br&gt;MembershipTypeName" style="ellipse;whiteSpace=wrap;html=1;" vertex="1" parent="1">
          <mxGeometry x="230" y="-300" width="190" height="160" as="geometry" />
        </mxCell>
        <mxCell id="fBbBC2fZr12eWxPC5pkF-3" value="&lt;b&gt;Membership&lt;/b&gt;&lt;br&gt;MembershipID&lt;br&gt;MembershipTypeID&lt;br&gt;PID&lt;br&gt;BillingID&lt;br&gt;" style="ellipse;whiteSpace=wrap;html=1;" vertex="1" parent="1">
          <mxGeometry x="100" y="-580" width="130" height="160" as="geometry" />
        </mxCell>
        <mxCell id="fBbBC2fZr12eWxPC5pkF-8" value="&lt;b&gt;PaymentType&lt;/b&gt;&lt;br&gt;PaymentTypeID&lt;br&gt;PaymentName" style="ellipse;whiteSpace=wrap;html=1;" vertex="1" parent="1">
          <mxGeometry x="690" y="-620" width="120" height="80" as="geometry" />
        </mxCell>
        <mxCell id="fBbBC2fZr12eWxPC5pkF-9" value="&lt;b&gt;Billing&lt;/b&gt;&lt;br&gt;BillingID&lt;br&gt;paymentTypeID&lt;br&gt;PID" style="ellipse;whiteSpace=wrap;html=1;" vertex="1" parent="1">
          <mxGeometry x="380" y="-720" width="120" height="190" as="geometry" />
        </mxCell>
        <mxCell id="fBbBC2fZr12eWxPC5pkF-15" value="" style="endArrow=classic;startArrow=classic;html=1;exitX=1.008;exitY=0.375;exitDx=0;exitDy=0;exitPerimeter=0;entryX=-0.033;entryY=0.6;entryDx=0;entryDy=0;entryPerimeter=0;" edge="1" parent="1" source="fBbBC2fZr12eWxPC5pkF-3" target="fBbBC2fZr12eWxPC5pkF-9">
          <mxGeometry width="50" height="50" relative="1" as="geometry">
            <mxPoint x="460" y="-410" as="sourcePoint" />
            <mxPoint x="510" y="-460" as="targetPoint" />
          </mxGeometry>
        </mxCell>
        <mxCell id="fBbBC2fZr12eWxPC5pkF-16" value="" style="endArrow=classic;startArrow=classic;html=1;entryX=0.088;entryY=0.18;entryDx=0;entryDy=0;entryPerimeter=0;" edge="1" parent="1" source="fBbBC2fZr12eWxPC5pkF-3" target="fBbBC2fZr12eWxPC5pkF-1">
          <mxGeometry width="50" height="50" relative="1" as="geometry">
            <mxPoint x="460" y="-410" as="sourcePoint" />
            <mxPoint x="510" y="-460" as="targetPoint" />
          </mxGeometry>
        </mxCell>
        <mxCell id="fBbBC2fZr12eWxPC5pkF-17" value="" style="endArrow=classic;startArrow=classic;html=1;exitX=0.923;exitY=0.813;exitDx=0;exitDy=0;exitPerimeter=0;entryX=0.674;entryY=0.038;entryDx=0;entryDy=0;entryPerimeter=0;" edge="1" parent="1" source="fBbBC2fZr12eWxPC5pkF-3" target="fBbBC2fZr12eWxPC5pkF-2">
          <mxGeometry width="50" height="50" relative="1" as="geometry">
            <mxPoint x="460" y="-410" as="sourcePoint" />
            <mxPoint x="510" y="-460" as="targetPoint" />
          </mxGeometry>
        </mxCell>
        <mxCell id="fBbBC2fZr12eWxPC5pkF-18" value="" style="endArrow=classic;startArrow=classic;html=1;exitX=1.008;exitY=0.574;exitDx=0;exitDy=0;exitPerimeter=0;entryX=-0.008;entryY=0.4;entryDx=0;entryDy=0;entryPerimeter=0;" edge="1" parent="1" source="fBbBC2fZr12eWxPC5pkF-9" target="fBbBC2fZr12eWxPC5pkF-8">
          <mxGeometry width="50" height="50" relative="1" as="geometry">
            <mxPoint x="460" y="-410" as="sourcePoint" />
            <mxPoint x="510" y="-460" as="targetPoint" />
          </mxGeometry>
        </mxCell>
        <mxCell id="fBbBC2fZr12eWxPC5pkF-19" value="" style="endArrow=classic;startArrow=classic;html=1;entryX=0.371;entryY=0.015;entryDx=0;entryDy=0;entryPerimeter=0;" edge="1" parent="1" source="fBbBC2fZr12eWxPC5pkF-9" target="fBbBC2fZr12eWxPC5pkF-1">
          <mxGeometry width="50" height="50" relative="1" as="geometry">
            <mxPoint x="460" y="-410" as="sourcePoint" />
            <mxPoint x="510" y="-460" as="targetPoint" />
          </mxGeometry>
        </mxCell>
        <mxCell id="fBbBC2fZr12eWxPC5pkF-20" value="" style="endArrow=classic;startArrow=classic;html=1;" edge="1" parent="1" source="fBbBC2fZr12eWxPC5pkF-2" target="fBbBC2fZr12eWxPC5pkF-1">
          <mxGeometry width="50" height="50" relative="1" as="geometry">
            <mxPoint x="460" y="-420" as="sourcePoint" />
            <mxPoint x="510" y="-470" as="targetPoint" />
          </mxGeometry>
        </mxCell>
      </root>
    </mxGraphModel>
  </diagram>
</mxfile>
